<?xml version="1.0" encoding="UTF-8"?><svg id="Layer_1" xmlns="http://www.w3.org/2000/svg" viewBox="0 0 780.17 780.17"><path d="M390.08,376.93c7.25,0,13.15,5.9,13.15,13.15s-5.9,13.15-13.15,13.15-13.15-5.9-13.15-13.15,5.9-13.15,13.15-13.15M390.08,371.93c-10.03,0-18.15,8.13-18.15,18.15s8.13,18.15,18.15,18.15,18.15-8.13,18.15-18.15-8.13-18.15-18.15-18.15h0Z" style="fill:#fff;"/><path d="M649.19,130.98C579.98,61.77,487.96,23.66,390.08,23.66s-189.89,38.11-259.1,107.32C61.77,200.19,23.66,292.21,23.66,390.09s38.12,189.89,107.32,259.1c69.21,69.21,161.23,107.32,259.1,107.32s189.9-38.11,259.11-107.32c69.21-69.21,107.32-161.23,107.32-259.1s-38.11-189.9-107.32-259.11ZM647.53,647.53c-68.77,68.77-160.2,106.64-257.45,106.64s-188.68-37.87-257.45-106.64C63.87,578.76,26,487.34,26,390.09s37.87-188.68,106.64-257.45C201.4,63.87,292.83,26,390.08,26s188.68,37.87,257.45,106.64c68.77,68.77,106.64,160.2,106.64,257.45s-37.87,188.68-106.64,257.45Z" style="fill:#222;"/><path d="M643.9,136.27c-67.8-67.8-157.93-105.13-253.81-105.13s-186.02,37.34-253.81,105.13C68.48,204.07,31.14,294.21,31.14,390.09s37.34,186.02,105.13,253.81c67.8,67.8,157.93,105.13,253.81,105.13s186.02-37.34,253.81-105.13c67.8-67.8,105.13-157.93,105.13-253.81s-37.34-186.02-105.13-253.81ZM725.16,424.71l-.24-.03c1.06-10.46,1.63-21.03,1.72-31.67h18.84c-.09,11.31-.7,22.53-1.82,33.64l-18.49-1.94ZM737.95,463.43l-18.43-3.92c2.31-11.07,4.07-22.3,5.26-33.66l.25.03,18.49,1.94c-1.26,12.01-3.12,23.89-5.57,35.61ZM737.71,464.57c-2.5,11.79-5.59,23.42-9.27,34.83l-8.76-2.85-9.16-2.98c3.47-10.79,6.4-21.78,8.76-32.93l17.49,3.72.94.2ZM715.2,534.19l-17.22-7.67c4.61-10.39,8.67-21.01,12.19-31.82l3.06.99,14.87,4.83c-3.73,11.44-8.02,22.68-12.89,33.67ZM714.71,535.26c-4.59,10.25-9.66,20.28-15.23,30.07l-16.32-9.42c5.23-9.22,10.01-18.67,14.33-28.32l13.5,6.01,3.72,1.66ZM647.82,621.36l-7.21-6.49c7.64-8.5,14.8-17.32,21.48-26.44l15.24,11.08c-7.06,9.64-14.64,18.98-22.72,27.97l-6.79-6.11ZM628.35,653.83l-12.61-14c4.19-3.8,8.31-7.71,12.34-11.74,4.03-4.03,7.94-8.15,11.74-12.34l14,12.61c-4.02,4.44-8.16,8.79-12.42,13.06-4.26,4.26-8.62,8.4-13.06,12.42ZM599.51,677.33l-11.08-15.24c9.12-6.68,17.94-13.84,26.44-21.48l6.49,7.21,6.11,6.79c-8.99,8.09-18.32,15.66-27.97,22.72ZM500.53,728.09l-4.71-14.5-1.11-3.42c10.81-3.52,21.44-7.58,31.82-12.19l7.67,17.22c-10.99,4.87-22.22,9.17-33.67,12.89ZM427.82,743.52l-.95-9.08-1.02-9.66c11.35-1.19,22.58-2.95,33.66-5.26l3.92,18.43c-11.71,2.45-23.59,4.31-35.61,5.57ZM316.74,737.95l3.92-18.43c11.07,2.31,22.3,4.07,33.66,5.26l-1.02,9.66-.95,9.08c-12.01-1.26-23.89-3.12-35.61-5.57ZM245.98,715.19l7.67-17.22c10.39,4.61,21.01,8.67,31.82,12.19l-1.4,4.31-4.42,13.61c-11.44-3.73-22.68-8.02-33.67-12.89ZM152.7,654.61l12.61-14c8.5,7.64,17.32,14.8,26.44,21.48l-2.34,3.22-8.74,12.02c-9.64-7.06-18.98-14.64-27.97-22.72ZM138.76,641.41c-4.26-4.26-8.4-8.62-12.42-13.06l8.14-7.33,5.86-5.27c3.8,4.19,7.71,8.31,11.74,12.34,4.03,4.03,8.15,7.94,12.34,11.74l-12.61,14c-4.44-4.02-8.79-8.16-13.06-12.42ZM51.73,499.41c-3.68-11.42-6.77-23.04-9.27-34.83l2.29-.49,16.14-3.43c2.37,11.15,5.29,22.13,8.76,32.93l-6.89,2.24-11.03,3.58ZM36.52,426.66c-1.13-11.11-1.73-22.33-1.82-33.64h18.84c.09,10.64.66,21.21,1.72,31.67l-.95.1-17.78,1.87ZM54.3,355.38l.95.1c-1.06,10.46-1.63,21.03-1.72,31.67h-18.84c.09-11.31.7-22.53,1.82-33.64l17.78,1.87ZM62.76,284.35l6.89,2.24c-3.47,10.79-6.4,21.78-8.76,32.93l-16.14-3.43-2.29-.49c2.5-11.79,5.59-23.42,9.27-34.83l11.03,3.58ZM64.97,245.98l17.22,7.67c-4.61,10.39-8.67,21.01-12.19,31.82l-5.47-1.78-12.46-4.05c3.73-11.44,8.02-22.68,12.89-33.67ZM65.46,244.91c4.59-10.25,9.66-20.28,15.23-30.07l16.32,9.42c-5.23,9.22-10.01,18.67-14.33,28.32l-10.67-4.75-6.55-2.92ZM151.82,126.34l12.61,14c-4.2,3.8-8.31,7.71-12.34,11.74-4.03,4.03-7.94,8.15-11.74,12.34l-5.86-5.27-8.14-7.33c4.02-4.44,8.16-8.79,12.42-13.06s8.62-8.4,13.06-12.42ZM180.66,102.84l8.74,12.02,2.34,3.22c-9.12,6.68-17.94,13.84-26.44,21.48l-12.61-14c8.99-8.09,18.32-15.66,27.97-22.72ZM352.35,36.65l1.86,17.68.11,1.06c-11.35,1.19-22.58,2.95-33.66,5.26l-3.92-18.43c11.71-2.45,23.59-4.31,35.61-5.57ZM463.43,42.21l-3.92,18.43c-11.07-2.31-22.3-4.07-33.66-5.26l.11-1.06,1.86-17.68c12.01,1.26,23.89,3.12,35.61,5.57ZM534.19,64.97l-7.67,17.22c-10.39-4.61-21.01-8.67-31.82-12.19l.99-3.06,4.83-14.87c11.44,3.73,22.68,8.02,33.67,12.89ZM627.47,125.56l-6.11,6.79-6.49,7.21c-8.5-7.64-17.32-14.8-26.44-21.48l11.07-15.24c9.64,7.06,18.98,14.64,27.97,22.72ZM641.41,138.76c4.26,4.26,8.4,8.62,12.42,13.06l-14,12.61c-3.8-4.19-7.71-8.31-11.74-12.34s-8.15-7.94-12.34-11.74l12.61-14c4.44,4.02,8.79,8.16,13.06,12.42ZM654.61,152.7c8.09,8.99,15.66,18.32,22.72,27.97l-15.24,11.07c-6.68-9.12-13.84-17.94-21.48-26.44l7.21-6.49,6.79-6.11ZM710.98,246.57l-13.5,6.01c-4.32-9.65-9.09-19.1-14.33-28.32l16.32-9.42c5.56,9.79,10.64,19.82,15.23,30.07l-3.72,1.66ZM728.09,279.64l-14.87,4.83-3.06.99c-3.52-10.81-7.58-21.44-12.19-31.82l17.22-7.67c4.87,10.99,9.17,22.22,12.89,33.67ZM728.44,280.76c3.68,11.42,6.77,23.04,9.27,34.83l-.94.2-17.49,3.72c-2.37-11.15-5.29-22.13-8.76-32.93l9.16-2.98,8.76-2.85ZM743.52,352.35l-18.49,1.94-.25.03c-1.19-11.35-2.95-22.58-5.26-33.66l18.43-3.92c2.45,11.71,4.31,23.59,5.57,35.61ZM743.65,353.51c1.13,11.11,1.73,22.33,1.82,33.64h-18.84c-.09-10.64-.66-21.21-1.72-31.67l.24-.03,18.49-1.94ZM72.01,532.34l10.67-4.75c4.32,9.65,9.09,19.1,14.33,28.32l-16.32,9.42c-5.56-9.79-10.64-19.82-15.23-30.07l6.55-2.92ZM153.74,626.43c-63.13-63.13-97.9-147.07-97.9-236.34s34.77-173.22,97.9-236.35c63.13-63.13,147.07-97.9,236.34-97.9s173.22,34.77,236.35,97.9c63.13,63.13,97.9,147.07,97.9,236.35s-34.77,173.21-97.9,236.34c-63.13,63.13-147.07,97.9-236.35,97.9s-173.22-34.77-236.34-97.9ZM252.58,82.68c-9.65,4.32-19.1,9.09-28.32,14.33l-9.42-16.32c9.79-5.56,19.82-10.64,30.07-15.23l1.66,3.72,6.01,13.5ZM680.21,219.2c-5.37-9.08-11.19-17.92-17.43-26.51l15.24-11.07c6.63,9.12,12.81,18.52,18.51,28.16l-16.32,9.42ZM560.97,99.96l9.42-16.32c9.65,5.7,19.04,11.87,28.16,18.51l-11.07,15.24c-8.59-6.25-17.43-12.06-26.51-17.43ZM565.33,80.69l-9.42,16.32c-9.22-5.23-18.67-10.01-28.32-14.33l6.01-13.5,1.66-3.72c10.25,4.59,20.28,9.66,30.07,15.23ZM493.58,69.65c-10.79-3.47-21.78-6.4-32.93-8.76l3.72-17.49.2-.94c11.79,2.5,23.42,5.59,34.83,9.27l-2.85,8.76-2.98,9.16ZM424.69,55.25c-10.46-1.06-21.03-1.63-31.67-1.72v-18.84c11.31.09,22.53.7,33.64,1.82l-1.86,17.69-.11,1.05ZM387.15,53.53c-10.64.09-21.21.66-31.67,1.72l-.11-1.05-1.86-17.69c11.11-1.13,22.33-1.73,33.64-1.82v18.84ZM319.51,60.89c-11.15,2.37-22.13,5.29-32.93,8.76l-2.98-9.16-2.85-8.76c11.42-3.68,23.04-6.77,34.83-9.27l.2.94,3.72,17.49ZM285.47,70c-10.81,3.52-21.44,7.58-31.82,12.19l-7.67-17.22c10.99-4.87,22.22-9.17,33.67-12.89l4.51,13.87,1.32,4.05ZM219.2,99.96c-9.08,5.37-17.92,11.18-26.51,17.43l-1.61-2.21-9.47-13.03c9.12-6.63,18.52-12.81,28.16-18.51l9.42,16.32ZM132.35,158.81l7.21,6.49c-7.64,8.5-14.8,17.32-21.48,26.44l-15.24-11.07c7.06-9.64,14.64-18.98,22.72-27.97l6.79,6.11ZM117.39,192.69c-6.25,8.59-12.06,17.43-17.43,26.51l-16.32-9.42c5.7-9.65,11.87-19.04,18.51-28.16l15.24,11.07ZM42.79,316.86l17.85,3.8c-2.31,11.07-4.07,22.3-5.26,33.66l-.25-.03-18.49-1.94c1.26-12.01,3.12-23.89,5.57-35.61l.58.12ZM55.38,425.85c1.19,11.35,2.95,22.58,5.26,33.66l-17.85,3.8-.58.12c-2.45-11.71-4.31-23.59-5.57-35.61l18.49-1.94.25-.03ZM70,494.7c3.52,10.81,7.58,21.44,12.19,31.82l-17.22,7.67c-4.87-10.99-9.17-22.22-12.89-33.67l12.46-4.05,5.47-1.78ZM99.96,560.97c5.37,9.08,11.18,17.92,17.43,26.51l-15.24,11.08c-6.63-9.12-12.81-18.52-18.51-28.16l16.32-9.42ZM139.56,614.87l-7.21,6.49-6.79,6.11c-8.09-8.99-15.66-18.32-22.72-27.97l15.24-11.08c6.68,9.12,13.84,17.94,21.48,26.44ZM219.2,680.21l-9.42,16.32c-9.65-5.7-19.04-11.87-28.16-18.51l11.08-15.24c8.59,6.25,17.43,12.06,26.51,17.43ZM214.84,699.48l9.42-16.32c9.22,5.23,18.67,10.01,28.32,14.33l-6.01,13.5-1.66,3.72c-10.25-4.59-20.28-9.66-30.07-15.23ZM286.59,710.52c10.79,3.47,21.78,6.4,32.93,8.76l-3.72,17.49-.2.94c-11.79-2.5-23.42-5.59-34.83-9.27l2.85-8.76,2.98-9.16ZM355.48,724.91c10.46,1.06,21.03,1.63,31.67,1.72v18.84c-11.31-.09-22.53-.7-33.64-1.82l1.86-17.69.11-1.05ZM393.01,726.64c10.64-.09,21.21-.66,31.67-1.72l.11,1.05,1.86,17.69c-11.11,1.13-22.34,1.73-33.64,1.82v-18.84ZM460.66,719.28c11.15-2.37,22.13-5.29,32.93-8.76l2.98,9.16,2.85,8.76c-11.42,3.67-23.04,6.77-34.83,9.27l-.2-.94-3.72-17.49ZM527.59,697.49c9.65-4.32,19.1-9.09,28.32-14.33l9.42,16.32c-9.79,5.56-19.82,10.64-30.07,15.23l-1.66-3.72-6.01-13.5ZM570.39,696.53l-9.42-16.32c9.08-5.37,17.92-11.19,26.51-17.43l5.68,7.82,5.4,7.43c-9.12,6.63-18.52,12.81-28.16,18.51ZM662.78,587.48c6.25-8.59,12.06-17.43,17.43-26.51l16.32,9.42c-5.7,9.65-11.87,19.04-18.51,28.16l-15.24-11.07Z" style="fill:#222;"/><circle cx="390.08" cy="390.08" r="13.57" style="fill:#222;"/><path d="M415.51,77.51c.25,0,.5.36.5.97,0,1.09-.31,1.09-.56,1.21-3.28.84-4.52.72-4.64,4.71-.56,21.24-4.52,37.29-4.52,50.56,0,7,1.11,13.4,4.52,19.19,1.49,2.66,1.36,3.86,4.64,4.71.25.12.56.36.56,1.21,0,.72-.31.72-.62.97-1.61,1.33-2.85,1.69-4.02,1.69-1.86,0-3.4-1.09-5.32-1.09-.56,0-1.18.12-1.79.36-1.18.48-2.29.6-3.28.6-2.29,0-4.33-.72-6.93-.72-.99,0-2.1.12-3.28.36-.8.24-1.42.24-1.98.24-2.85,0-3.34-1.93-5.82-1.93-.68,0-1.42.12-2.41.48-.19,0-.43-.36-.43-.97s.12-1.09.56-1.33c1.24-.6,1.42-.84,1.42-1.69,0-.48,0-1.09-.06-1.93-.5-12.43-2.91-27.76-4.64-27.76-.31,0-.56.48-.8,1.33-2.66,9.53-2.97,13.76-4.58,20.88-.31,1.33-.5,2.66-.5,3.98,0,2.17.56,4.1,1.98,5.31.31.24.49.6.49,1.21,0,.84-.37.84-.62.97-.99.6-1.67.84-2.29.84-1.55,0-2.35-1.45-4.7-1.45-.74,0-1.67.12-2.85.6h-.12c-.12,0-.37-.24-.37-.97,0-.6.12-.97.43-1.21,1.73-1.33,3.84-3.98,5.2-8.81,3.53-12.19,5.69-14.24,6.5-28.24v-1.21c0-8.57-4.15-22.33-8.48-37.53-.62-2.17-1.49-2.9-2.41-3.26-.25-.24-.37-.6-.37-1.21,0-.72.19-.97.37-1.09.87-.6,1.61-.84,2.23-.84,1.86,0,3.16,1.93,5.82,1.93.99,0,2.23-.24,3.71-1.09h.06c.19,0,.31.36.31.84,0,.97-.06,1.33-.5,1.45-1.42.6-1.98.97-1.98,2.17,0,.36.06.72.12,1.21,2.29,14.24,2.1,24.98,3.28,24.98.31,0,.74-.84,1.42-2.78,3.53-10.38,2.48-11.71,3.78-17.14.37-1.57.8-3.74.8-5.43,0-1.93-.43-3.26-1.67-3.26h-.5c-.19,0-.37-.48-.37-1.21s.31-.6.49-.84c.87-1.09,1.92-1.33,3.09-1.33,1.55,0,3.34.48,5.2.48h1.3c2.78,0,4.76.48,7.24.48,1.18,0,2.48-.12,4.02-.48.8-.24,1.61-.24,2.29-.24,3.22,0,5.38,1.57,8.17,1.57.87,0,1.79-.12,2.78-.48h.12ZM391.26,156.07c0-.6-.06-1.21-.06-1.93-.12-3.74-.19-7.36-.19-10.74,0-15.21,1.11-27.88,1.11-40.79,0-5.91-.25-11.83-.93-18.22-.37-3.14-.8-4.46-1.42-4.46-1.05,0-2.41,3.5-4.21,8.08-3.03,7.6-4.27,13.39-5.32,24.5-.06.84-.12,1.81-.12,2.65,0,9.53,4.95,18.59,9.34,39.46.56,2.66,1.05,3.98,1.36,3.98.25,0,.43-.84.43-2.53ZM403.88,155.47c0-.36,0-.84-.06-1.33-.31-4.47-.5-8.69-.5-12.67,0-15.09,1.92-27.64,1.92-40.19,0-5.55-.37-11.1-1.42-16.9-.56-3.26-1.86-4.83-3.03-4.83-1.24,0-2.41,1.69-2.66,4.83-1.61,19.79-4.52,35.24-4.52,48.03,0,8.09,1.18,15.21,4.52,21.72,1.42,2.78,3.09,4.71,4.33,4.71.8,0,1.42-.97,1.42-3.38Z" style="fill:#222;"/><path d="M497.78,187.74c-.21-.12-.25-.56.05-1.08.42-.73.7-.85,1.09-.77,2.88.83,4.33,1.66,5.84-.95.12-.21.3-.52.43-.87,1.97-4.16,4.04-8.12,6.16-11.78,7.36-12.75,15.24-22.69,21.58-33.66,2.71-4.7,5.16-9.56,7.14-14.97,1.33-3.55.81-3.99-1.56-6.33-.26-.29-.42-.38.12-1.32.36-.63.63-.47,1.02-.53,1.49-.11,2.69.16,3.71.75,2.62,1.52,4.29,4.7,7.34,6.47.96.56,2.16.97,3.47,1.17l.11.06c.21.12.19.53-.11,1.05-.54.94-.76.82-1.03.8-3.21-.88-4.22-1.6-6.27,1.82-11.05,18.15-22.68,30.24-29.31,41.74-3.5,6.06-5.56,11.98-5.56,18.67.07,2.97-.81,3.99,1.56,6.34.15.23.25.56-.17,1.29-.36.63-.58.5-.97.56-1.84.33-2.93.26-3.74-.21-1.82-1.05-2.24-3.8-6.63-6.34-1.07-.62-2.47-1.29-4.15-1.84l-.11-.06Z" style="fill:#222;"/><path d="M579.63,260.09c-.12-.21.07-.61.59-.91.73-.42,1.03-.38,1.32-.12,2.08,2.16,2.92,3.6,5.53,2.1.21-.12.52-.3.81-.54,3.79-2.62,7.56-5.01,11.22-7.12,12.75-7.36,24.55-12.03,35.52-18.36,4.7-2.72,9.25-5.7,13.67-9.39,2.93-2.41,2.69-3.06,1.82-6.27-.08-.38-.17-.54.77-1.09.63-.36.78-.09,1.14.05,1.35.65,2.25,1.49,2.84,2.5,1.52,2.63,1.36,6.22,3.12,9.27.56.96,1.38,1.92,2.42,2.75l.06.11c.12.22-.07.61-.59.91-.94.54-1.1.28-1.32.12-2.34-2.36-2.82-3.44-6.33-1.56-18.78,10.2-35.58,14.4-47.08,21.04-6.06,3.5-10.61,7.7-13.33,13.84-1.15,2.59-2.7,3.06-1.82,6.27.02.27-.03.66-.77,1.08-.63.36-.78.09-1.14-.05-1.76-.63-2.67-1.25-3.13-2.05-1.05-1.82-.04-4.41-2.57-8.8-.62-1.07-1.5-2.35-2.68-3.67l-.06-.11ZM589.53,277.24c-.12-.21.07-.61.59-.91.73-.42,1.03-.38,1.32-.12,2.34,2.36,2.72,2.79,6.34,1.56,10.15-3.43,20.7-8.31,31.15-14.34,10.24-5.91,20.27-12.92,29.25-20.53,2.83-2.34,2.69-3.05,1.82-6.26-.08-.38-.17-.54.77-1.09.63-.36.78-.09,1.15.05,1.35.65,2.25,1.49,2.84,2.51,1.52,2.63,1.36,6.22,3.12,9.27.56.96,1.38,1.92,2.42,2.75l.06.11c.12.22-.1.56-.62.86-.94.54-1.06.33-1.29.18-2.34-2.36-2.82-3.44-6.34-1.56-17.36,9.52-29.04,15.34-39.71,21.5-6.9,3.98-13.43,8.11-20.7,13.38-3.16,2.25-2.69,3.06-1.82,6.27-.01.22-.32.9-.63,1.08q-.11.06-.17-.05c-.22-.38-.35-.37-.56-.25-.1.06-.18.17-.28.23-.1.06-.24.07-.27.01-1.76-.63-2.67-1.25-3.13-2.05-1.05-1.82-.04-4.41-2.57-8.8-.62-1.07-1.5-2.35-2.68-3.67l-.06-.11Z" style="fill:#222;"/><path d="M702.82,412.71c0,.25-.24.56-.97.56s-1.09-.12-1.21-.56c-.24-.68-.84-2.35-1.57-3.16-.48-.8-1.69-1.05-3.5-1.24-9.9-.99-18.58-1.3-26.55-1.3-15.81,0-28.72,1.3-42.48,1.3-1.81,0-3.02.43-3.5,1.24-.72.8-1.33,2.47-1.57,3.16-.12.43-.48.56-1.21.56-.84,0-.84-.37-.97-.68-1.57-4.76-2.17-8.6-2.17-12.31,0-7.55,2.29-14.42,2.29-27.6,0-1.48,0-3.03-.12-4.7,0-.31.12-.68.97-.68.72,0,1.09.12,1.21.56.24.62.84,2.29,1.57,3.16.48.8,1.69,1.24,3.5,1.24,13.76,0,23.41,2.47,39.34,2.47,7.84,0,17.38-.62,29.69-2.47,1.69-.25,3.02-.43,3.5-1.24.72-.87,1.33-2.54,1.57-3.16.12-.43.48-.56,1.21-.56.84,0,.84.37.97.68,1.21,4.15,1.69,7.86,1.69,11.32,0,8.85-2.9,16.15-2.9,24.5,0,2.78.36,5.69,1.21,8.79v.12ZM626.55,400.89c7.72,1.3,15.93,1.73,24.13,1.73,16.41,0,32.58-1.73,44.89-1.73,1.81,0,3.02-.37,3.5-1.18.6-.62.97-1.49.97-2.35s-.36-1.67-.97-2.35c-.48-.8-1.69-.99-3.5-1.18-10.38-1.11-19.19-1.55-27.15-1.55-15.81,0-28.12,1.55-41.88,1.55-1.81,0-2.53.56-3.5,1.18s-1.45,1.3-1.45,1.98c0,.99.72,1.92,1.45,2.72.48.8,1.81.87,3.5,1.18ZM699.92,383.07c0-.8-.24-1.61-.84-2.29-.48-.8-1.69-1.11-3.5-1.11-12.31,0-33.31-1.86-49.6-1.86-8.21,0-15.21.5-19.43,1.86-1.57.5-3.02.31-3.5,1.11-.48.62-.84,1.42-.84,2.29,0,.8.36,1.61.84,2.23.48.8,1.81.93,3.5,1.24,7.48,1.3,15.57,1.73,23.77,1.73,16.29,0,32.94-1.73,45.25-1.73,1.81,0,3.02-.43,3.5-1.24.6-.62.84-1.42.84-2.23Z" style="fill:#222;"/><path d="M647.68,569.55c-.15.27-.62.35-1.14.05-.63-.36-.98-.71-.9-1.09.11-3.58-1.9-6.6-5.05-9.35-17.99-15.67-46.04-32.01-57.65-44-.68-.75-1.29-1.39-1.04-1.82s1.03-.33,2.23,0c24.91,6.81,48.54,18.02,75.32,23.77,1.61.36,2.91.03,3.28-.61.12-.22.11-.43.1-.66-.02-.94-.84-1.92-2.41-2.82-8.43-4.94-20.7-12.66-32.61-19.54-10.87-6.27-21.46-11.82-27.97-13.58-1.68-.47-2.83-1.13-3.65-.68-1.03.33-2.39,1.48-2.94,1.95-.32.31-.7.24-1.32-.12-.73-.42-.44-.68-.5-1.07-.12-1.72.12-2.86.64-3.77,1.18-2.04,3.69-3.01,5.89-6.82.49-.86.98-1.93,1.45-3.24l.06-.11c.15-.27.49-.36,1.11,0,.63.36.88.65.77,1.09-.1.66-.44,2.46-.25,3.57.01.94.87,1.86,2.44,2.77,10.03,5.79,15.94,10.28,25.87,16.01,7.84,4.53,18.05,9.78,34.71,17.11,1.66.74,2.8,1.19,3.65.68,1.03-.33,2.42-1.53,2.94-1.95.32-.31.7-.24,1.32.12.73.42.62.86.5,1.07-1,2.71-2.11,4.86-3.22,6.79-2.57,4.45-5.37,7.62-8.31,12.71-.81,1.39-1.54,2.9-2.36,4.57-.15.27-.59.3-1.11,0-.63-.36-.91-.6-.84-1.2.47-2.02.97-3.37-.6-4.27-.31-.18-.66-.31-1-.44-15.25-5.45-52.75-20.38-53.93-18.35-.19.32.63,1.08,2.63,2.45,13.66,9.17,23.56,18.32,38.03,27.53.39.29.81.54,1.22.78,3.66,2.11,6.19,2.07,9.16.07.43-.25.83-.23,1.46.13.63.36.41.74.5,1.07.04,1.38-.25,2.36-.68,3.11-1.05,1.82-3.08,2.44-4.57,5.01-.46.8-.85,1.72-1.16,2.97l-.06.11Z" style="fill:#222;"/><path d="M526.57,672.56c-.21.12-.66.1-1.02-.53-.36-.63-.38-.9-.18-1.43,1.88-3.31,1.95-6.14.2-11.4-11.46-34.07-18.67-44.96-23.3-67.09-.36-1.74-.88-3.39-.08-3.85.86-.5,2.18.55,3.56,1.84,11.89,10.69,22.53,26.15,31.37,36.51,6.33,7.49,10.26,8.99,20.39,20.84,2.16,2.51,3.63,2.08,5.58,1.38.38-.08.56.1.98.83.36.63.32.93.12,1.19-1.11,2.03-2.11,3.03-3.08,3.59-2.2,1.27-4.3-.02-7.94,2.08-1.02.59-2.08,1.48-3.4,2.66l-.05.03c-.21.12-.67-.17-.91-.59-.42-.73-.39-1.17.03-1.55,1.78-1.86,2.55-3.01,1.59-4.68-.18-.31-.42-.6-.71-.98-15.58-18.32-35.11-47.32-38.75-45.21-.27.16-.42.38-.51.85-1.91,8.21,7.14,23.75,17.52,50.64.38,1.03.81,1.9,1.23,2.63,1.57,2.72,3.55,3.8,7.63,3.81.44.02.66.03,1.09.77.42.73,0,.98-.21,1.24-.76,1.28-1.5,1.98-2.36,2.48-1.98,1.14-4.16.59-6.46,1.92-.7.4-1.44.97-2.16,1.95l-.16.09Z" style="fill:#222;"/><path d="M366.51,702.99c-.31,0-.62-.24-.62-.97s.12-1.09.62-1.21c.37-.24,2.23-.72,3.03-1.45.8-.6,1.11-1.69,1.24-3.26,1.36-17.5,1.79-28.84,1.79-36.81,0-16.05-1.79-18.95-1.79-32.7,0-1.81-.5-2.9-1.24-3.5-.74-.6-2.41-1.09-3.09-1.33-.43-.12-.56-.48-.56-1.33,0-.72.37-.72.74-.97,1.61-.84,2.85-1.21,4.08-1.21,2.47,0,4.7,1.33,9.22,1.33.68,0,1.48,0,2.29-.12.25,0,.74.12.74.97,0,.72-.06,1.09-.56,1.33-.68.24-2.29.97-3.16,1.57-.74.6-.93,1.69-1.11,3.26-1.05,9.65-1.42,18.58-1.42,26.79,0,16.53,1.42,30.41,1.42,42.72,0,1.81.68,3.26,1.55,3.5h.25c1.36,0,2.66-3.38,3.71-7.97,6.06-27.39,8.35-54.67,11.26-71.92.19-1.21.62-1.81,1.18-1.81.49,0,.74.84,1.05,1.93,6.99,22.2,7.73,51.53,15.04,77.11.25.84.99,2.29,1.73,2.77.62.48,1.73.72,2.48,1.09.37.12.43.48.43,1.09,0,.84-.12.97-.43,1.09-1.8.84-3.22,1.21-4.33,1.21-2.85,0-4.45-1.93-7.98-1.93-1.11,0-2.41.24-4.02.72h-.06c-.31,0-.43-.48-.43-.97,0-.72,0-1.09.68-1.33,2.35-.6,3.34-1.69,3.34-3.02,0-.12-.06-.36-.06-.48-2.97-16.17-6.87-57.2-8.91-57.2-.37,0-.68,1.33-.93,4.59-1.05,14.24-4.7,30.41-6.93,46.7-.06.72-.12,1.33-.12,1.93,0,3.62,1.79,5.67,4.64,7.48.37.36.56.6.56,1.33,0,.84-.43.84-.68.97-2.78.72-5.01,1.09-6.87,1.09-4.89,0-7.55-1.93-12.07-1.93-1.61,0-3.4.24-5.57.84h-.12Z" style="fill:#222;"/><path d="M275.58,588.83c.27.15.3.59,0,1.11-.36.63-.71.98-1.09.9-.38-.08-1.69-.28-2.75-.06-.94.02-2.02.78-2.93,2.35-6.88,11.92-15.14,21.77-23.17,35.67-3.98,6.9-7.96,14.77-11.59,24.52-.44,1.14-.72,2.23-.54,3.03.04.3.14.5.3.59.96.56,3.51-2.99,5.42-5.79,17.56-26.09,37.36-48.38,44.32-57.46.64-.74,1.6-1.17,1.87-1.01.43.25.5,1.12.11,2.16-7.4,19-19.29,49.75-28.13,73.22-.7,1.96-.17,3.39,1.13,4.97.15.23.09.47-.28,1.09-.36.63-.52.4-.8.65-2.41,1.82-3.74,2.02-4.76,1.43-1.98-1.15-2.64-5.7-7.25-8.36l-.27-.15c-.21-.12-.25-.56.05-1.08.36-.63.54-.81,1.09-.77,1.98.17,3.53-.05,4.25-1.31.06-.1.07-.24.13-.34,5.73-14.25,24.86-51.98,22.99-53.06-.32-.19-1.31.78-3.26,3.42-11.22,14.98-13.75,12.55-29.07,37.98l-.36.63c-2.35,4.08-2.55,6.89-1.33,8.99.15.36.25.56-.11,1.19-.42.73-.74.55-1.07.5-3.85-.27-6.5-1.11-8.7-2.38-4.66-2.69-7.25-7.11-14.49-11.29-1.23-.71-2.63-1.38-4.19-2.14-.27-.15-.53-.44-.11-1.18.36-.63.6-.91,1.03-.8.5,0,1.53.19,2.48.04,1.17-.16,2.02-.78,3.04-2.29,9.65-14.49,15.59-24.03,19.57-30.92,8.02-13.9,8.31-17.36,15.19-29.27.84-1.46,1.01-2.62.67-3.51-.33-1.17-.94-2.08-1.47-2.52-.26-.29-.13-.77.24-1.4s.8-.51,1.13-.46c2.7.03,4.81.83,6.74,1.94,4.34,2.51,7.37,6.9,11.98,9.56,1.18.68,2.48,1.15,3.89,1.55l.11.06ZM258.2,587.01c-2.88,1.27-6.67,6.6-10.77,13.71-8.27,14.32-17.83,35.83-23.98,46.49-.78,1.36-1.01,2.62-.72,3.48.13.63.5,1.12,1.03,1.43s1.31.34,1.98.17c.83-.08,1.7-.97,2.49-2.33,6.15-10.66,15.67-24.54,23.93-38.86,4.1-7.11,7.94-14.37,10.82-21.34.63-1.59,1.07-2.73.73-3.62-.08-.6-.56-1.02-1.04-1.3-.59-.34-1.35-.5-2.03-.2-.84.21-1.41,1.83-2.43,2.36Z" style="fill:#222;"/><path d="M133.02,558.89c12.75-9.29,45.95-29.03,44.83-30.96-.22-.38-1.48-.15-4.26.82-15.31,5.34-27.51,12.45-41,18.53-.55.25-1.08.55-1.49.79-3.34,1.93-4.68,4.2-4.88,6.75-.05.39.04.55-.59.91-.73.42-.86.21-1.11,0-3.83-3.01-6.17-5.87-7.85-8.76-3.43-5.95-4.02-12.04-8.57-19.91-.62-1.07-1.27-2.2-2.08-3.37-.15-.27-.13-.71.5-1.07.63-.36,1.03-.38,1.32-.12.49.36,1.37.92,2.26,1.27.93.39,1.98.29,3.61-.51,13.28-6.45,22.31-11.31,29.32-15.35,13.79-7.97,18.97-12.52,30.88-19.4,1.57-.91,2.29-1.82,2.44-2.77.15-.95.21-2.05-.09-2.81-.08-.38.28-.73.9-1.09s.92-.1,1.18.11c3.15,2.32,5.15,4.81,6.66,7.44,3.09,5.36,4.03,11.32,7.96,18.13.43.75.97,1.44,1.4,2.19.19.32.24.65-.5,1.07-.63.36-.97.49-1.32.12-.46-.31-1.57-1.02-2.49-1.42-.99-.5-2.11-.28-3.68.62-11.91,6.88-18.99,8.39-32.78,16.35-7,4.04-15.61,9.65-27.42,18.4-.88.65-1.52,1.23-1.9,2.02-.12.28-.16.45-.07.61.43.75,4.28-1.04,7.28-2.35,17.5-7.82,53.76-24.18,65.9-29.47,1-.44,1.95-.48,2.17-.11.22.38-.53,1.02-1.31,1.83-13.28,14.17-39.5,28.38-61.84,47.35-1.41,1.17-1.77,2.73-1.51,4.87.05.33-.13.5-.76.86s-.72.2-1.05.11c-2.47-.65-3.53-1.53-4.12-2.55-1.14-1.98-.03-4.63-2.19-8.38l-.31-.54c-.09-.16.13-.5.65-.81.63-.36.84-.48,1.26-.23,1.8,1.18,3.4,1.54,4.44.94l.21-.12ZM114.48,532.08c.78.62,2.35.21,3.95-.64,9.59-5.11,17.52-9.47,24.42-13.46,13.9-8.03,23.86-14.42,35.78-21.3,1.36-.78,2.25-1.66,2.43-2.55.09-.33.04-.66-.15-.98-.19-.32-.48-.58-.91-.62-.83-.23-1.77.31-3.32.77-4.81,1.56-11.34,4.98-18.45,9.08-14.32,8.27-31.09,19.52-41.75,25.68-1.78,1.03-2.66,2.39-2.37,3.37l.37.64ZM181.44,501.57c-6.14,2.4-13.15,5.95-20.25,10.05-14.32,8.27-29.28,18.55-39.94,24.7-1.57.91-2.29,1.82-2.44,2.77-.08.33.07.6.22.87.12.21.28.48.58.52.93.39,2.05.17,3.62-.73,10.66-6.15,27.66-14.61,41.97-22.88,7.11-4.1,13.54-8.17,18.22-11.88,1.23-1,2.01-1.59,2.33-2.49.23-.56.15-.95-.03-1.27-.15-.27-.44-.53-.88-.56-.86-.29-2.01.38-3.39.89Z" style="fill:#222;"/><path d="M159.65,379.05c-.48,0-.84-.12-1.09-.68-.48-1.3-1.21-2.04-2.53-2.04-.36,0-.72,0-1.09.12-7.97,1.86-30.77,3.84-30.77,5.75,0,.37.72.68,2.53,1.05,10.86,2.23,17.02,4.39,23.65,5.94.84.19,1.57.31,2.29.31,2.9,0,4.95-1.42,5.91-3.16.24-.37.6-.56,1.33-.56.84,0,.84.37.97.68.84,2.6,1.09,4.58,1.09,6.5,0,3.9-1.21,7.49-1.21,15.78,0,1.36,0,2.85.12,4.46,0,.31-.12.81-.84.81s-1.21-.12-1.33-.56c-.24-.62-.97-2.29-1.57-3.09-.6-.8-1.81-.8-3.38-1.18-10.86-2.47-20.03-3.34-28.24-3.34-16.41,0-28.72,3.34-41.03,3.34-1.81,0-2.9.43-3.38,1.18-.72.81-1.33,2.47-1.57,3.09-.12.43-.6.56-1.21.56-.84,0-.97-.5-.97-.81-.36-2.91-.48-5.38-.48-7.49,0-5.82.97-9.41.97-14.85,0-1.98-.12-4.21-.48-6.87,0-.31.36-.56.97-.56.72,0,1.09.12,1.33.62.48,1.42,1.57,2.54,2.9,2.54.24,0,.36,0,.6-.06,5.07-1.24,25.1-2.04,25.1-4.7,0-.37-.36-.74-1.33-1.24-4.95-2.47-13.88-3.46-19.07-4.7-1.09-.25-2.05-.37-2.9-.37-2.77,0-4.22,1.24-5.43,2.78-.36.43-.6.56-1.21.56-.84,0-.97-.5-.97-.68v-.74c0-2.66,1.45-3.71,1.45-5.75,0-1.05-.36-2.29-1.45-4.15v-.12c0-.25.24-.62.97-.62.6,0,1.09.18,1.21.56,1.21,2.47,4.83,4.58,8.45,5.57,7.36,2.04,13.76,5.07,24.01,6.25.97.12,1.93.19,2.9.19,12.07,0,28.12-8.29,40.43-11.63,1.57-.43,2.78-1.98,3.38-3.34.12-.31.36-.43,1.09-.43s.72.25,1.09.43c1.21,1.18,1.57,2.1,1.57,3.09,0,2.04-1.69,4.21-1.69,8.6,0,.74,0,1.49.12,2.35,0,.31-.36.62-.84.62h-.36ZM121.64,384.62c-11.59.06-28.12,7.12-38.74,10.02-2.05.56-2.66,1.73-2.66,3.46,0,2.35,1.45,3.53,3.98,3.65,10.98.5,20.03.68,28,.68,16.05,0,27.76-.68,41.51-.68,2.53,0,4.1-1.18,4.1-3.16,0-3.09-2.66-5.01-7.24-6.25-9.05-2.47-16.05-7.73-28.72-7.73h-.24Z" style="fill:#222;"/><path d="M194.41,270.7c-.12.21-.53.19-.95-.05-.63-.36-1.01-.66-.91-1.31.55-2.4.62-3-.84-3.85-.21-.12-.55-.25-.87-.43-11.38-5.64-29.96-10.37-31.3-8.07-.18.32-.06.82.55,1.46,7.56,8.15,12.14,13.73,17.06,19.21.68.75,1.32,1.33,2.16,1.82,2.3,1.33,5.17,1.41,7.53-.01.43-.26.83-.23,1.46.13.63.36.31.68.36,1.07.35,1.56.23,2.49-.17,3.19-.93,1.61-3.31,1.88-5.2,5.14-.53.91-.98,1.94-1.38,3.35l-.06.11c-.12.21-.52.42-1.04.11-.63-.36-.85-.7-.84-1.2.12-2.86-1.04-6.17-4.23-10.3-8.02-10.49-9.22-15.9-20.81-23.81-.31-.18-.6-.42-1.01-.66-7.32-4.22-21.04-5.07-37.23-7.2-2.45-.34-3.59.43-4.59,1.42-.36.15-.74.07-1.26-.23-.63-.36-.64-.58-.69-.97-.4-1.73-.32-2.83.11-3.58,1.08-1.88,4.02-1.89,5.97-5.27.62-1.07,1.12-2.42,1.5-4.28l.03-.05c.12-.22.63-.13,1.05.11.73.42.98.71.81,1.25-.53,2.12-.62,3,.53,3.67.31.18.66.31,1.14.44,14.21,4.35,25.65,9.88,26.64,8.16.28-.48-.17-1.39-1.48-3-6.52-8.26-11.28-10.16-13.67-15.18-.38-.79-1.02-1.37-1.75-1.8-1.99-1.15-5.1-1.3-7.22.19-.39.2-.8.18-1.32-.12-.73-.42-.38-.79-.5-1.07-.32-1.61-.11-2.71.35-3.51,1.05-1.82,3.49-2.42,4.97-4.99.37-.64.67-1.4.92-2.32l.06-.11c.12-.21.49-.36,1.11,0,.52.3.8.54.83.98-.45,3.67,1.66,5.82,4.07,9.85,4.39,7.61,8.14,12.2,16.99,19.09.39.29.88.65,1.3.89,7.11,4.1,20.68,2.8,42.37,7.95,3.08.71,4.62-.76,5.66-1.59.46-.31.67-.19,1.29.17.73.42.67.53.72.92.09,2.27-.11,3.58-.64,4.49-1.18,2.04-3.69,1.8-5.91,5.66-.59,1.02-1.06,2.32-1.61,4l-.06.11Z" style="fill:#222;"/><path d="M269.68,195.07c-.21.12-.61-.07-.85-.49-.36-.63-.5-1.11-.13-1.59,1.73-1.83,2.14-2.35,1.3-3.82-.12-.21-.36-.49-.54-.81-6.91-10.36-18.31-23.43-20.03-22.44-.27.15-.29.73-.03,1.69,3.19,10.84,3.79,15.09,6.08,22.41.32.93.64,1.72,1.12,2.56,1.39,2.4,3.56,3.94,6.42,3.82.55-.04.89.18,1.25.81s-.13.77-.27,1.13c-.53,1.56-1.1,2.31-1.79,2.71-1.55.9-3.7-.09-7.02,1.82-.86.5-1.87,1.22-2.92,2.24l-.11.06c-.21.12-.66.1-.96-.42-.36-.63-.38-1.03-.13-1.46,1.59-2.45,3.13-5.85,1.92-11.28-2.42-10.87-1.13-16.07-7.35-28.08-.18-.31-.37-.76-.55-1.08-4.34-7.52-14.88-17.61-28-27.45-1.95-1.52-3.38-1.39-4.74-1.03-.44-.02-.73-.27-1.03-.8-.36-.63-.21-.86-.06-1.22.58-1.73,1.14-2.61,1.89-3.04,1.82-1.05,4.27.46,7.75-1.55,1.07-.62,2.18-1.54,3.49-2.99l.05-.03c.21-.12.62.2.86.62.42.73.5,1.11.07,1.49-1.57,1.61-2.04,2.29-1.37,3.44.18.31.42.6.71.98,9.73,11.66,16.09,21.92,17.37,21.18.37-.22.32-1.3-.18-3.52-2.36-10.9-4.11-12.81-5.4-18.76-.27-1.1-.6-2.02-1.02-2.76-1.15-1.99-3.14-3.21-6.32-2.9-.44-.02-.78-.25-1.09-.77-.42-.73.01-.84.11-1.18.63-1.76,1.57-2.86,2.75-3.54,2.04-1.18,4.62-1.27,7.03-2.67.48-.28,1.02-.59,1.49-1,.95-.83,1.8-1.46,2.55-1.89,3.38-1.95,5.46-1.06,7.87-2.45.86-.5,1.81-1.32,2.85-2.62l.11-.06c.16-.09.56.1.86.62.54.94.27,1.1.17,1.29-2.47,2.4-3.6,2.92-1.72,6.43,10.19,18.64,14.84,34.49,21.48,45.99,3.5,6.06,7.6,10.94,13.4,14.42,2.67,1.66,3.11,2.66,6.43,1.73.22.01.61.07,1.03.8.36.63.09.78,0,1.11-.59,1.46-1.32,2.29-2.23,2.82-1.93,1.11-4.59.84-7.75,2.66-1.02.59-2.14,1.37-3.24,2.43-1.1,1.19-2.06,1.88-2.91,2.38-2.57,1.49-4.14,1-6.44,2.33-.64.37-1.39.8-2.18,1.68l-.05.03ZM280.34,180.98c-2.68-3.89-5.01-7.56-7.12-11.22-7.42-12.85-12.09-24.65-18.36-35.52-2.71-4.7-5.7-9.25-9.39-13.67-1.93-2.23-3.68-3.17-4.86-2.49-.21.12-.43.25-.58.48-1.51,1.71-1.85,4.97-.88,9.98,1.5,7.91,2.06,13.72,6.43,24.01.31.66.68,1.42,1.04,2.05,4.47,7.73,14.24,13.65,30.17,28.99,1.62,1.57,3.06,1.72,3.87,1.25.8-.46,1.02-1.7.11-3.27-.12-.21-.29-.39-.42-.6Z" style="fill:#222;"/></svg>