<?xml version="1.0" encoding="UTF-8"?><svg id="Layer_1" xmlns="http://www.w3.org/2000/svg" viewBox="0 0 639.37 639.37"><rect x="318.68" y="83.67" width="2" height="18.02" style="fill:#f0f2f5;"/><rect x="259.93" y="91.4" width="2" height="18.02" transform="translate(-17.1 70.96) rotate(-15)" style="fill:#f0f2f5;"/><rect x="205.18" y="114.08" width="2" height="18.02" transform="translate(-33.92 119.58) rotate(-30)" style="fill:#f0f2f5;"/><rect x="158.17" y="150.15" width="2" height="18.02" transform="translate(-65.93 159.17) rotate(-45)" style="fill:#f0f2f5;"/><rect x="122.09" y="197.17" width="2" height="18.02" transform="translate(-117.01 209.69) rotate(-60)" style="fill:#f0f2f5;"/><rect x="99.41" y="251.92" width="2" height="18.02" transform="translate(-177.62 290.39) rotate(-75)" style="fill:#f0f2f5;"/><rect x="83.67" y="318.68" width="18.02" height="2" style="fill:#f0f2f5;"/><rect x="91.4" y="377.44" width="18.02" height="2" transform="translate(-94.53 38.88) rotate(-15)" style="fill:#f0f2f5;"/><rect x="114.08" y="432.19" width="18.02" height="2" transform="translate(-200.07 119.55) rotate(-29.99)" style="fill:#f0f2f5;"/><rect x="150.15" y="479.2" width="18.02" height="2" transform="translate(-292.94 253.2) rotate(-45)" style="fill:#f0f2f5;"/><rect x="197.17" y="515.28" width="18.02" height="2" transform="translate(-344.03 436.75) rotate(-60.01)" style="fill:#f0f2f5;"/><rect x="251.92" y="537.96" width="18.02" height="2" transform="translate(-327.2 651.51) rotate(-75)" style="fill:#f0f2f5;"/><rect x="318.68" y="537.68" width="2" height="18.02" style="fill:#f0f2f5;"/><rect x="377.44" y="529.95" width="2" height="18.02" transform="translate(-126.6 116.32) rotate(-15)" style="fill:#f0f2f5;"/><rect x="432.19" y="507.27" width="2" height="18.02" transform="translate(-200.1 285.75) rotate(-30)" style="fill:#f0f2f5;"/><rect x="479.2" y="471.19" width="2" height="18.02" transform="translate(-198.91 480.2) rotate(-45)" style="fill:#f0f2f5;"/><rect x="515.28" y="424.18" width="2" height="18.02" transform="translate(-117.01 663.7) rotate(-60)" style="fill:#f0f2f5;"/><rect x="537.96" y="369.43" width="2" height="18.02" transform="translate(33.93 801.09) rotate(-75)" style="fill:#f0f2f5;"/><rect x="537.68" y="318.68" width="18.02" height="2" style="fill:#f0f2f5;"/><rect x="529.95" y="259.93" width="18.02" height="2" transform="translate(-49.17 148.38) rotate(-15)" style="fill:#f0f2f5;"/><rect x="507.27" y="205.18" width="18.02" height="2" transform="translate(-33.93 285.71) rotate(-29.99)" style="fill:#f0f2f5;"/><rect x="471.19" y="158.17" width="18.02" height="2" transform="translate(28.1 386.17) rotate(-45)" style="fill:#f0f2f5;"/><rect x="424.18" y="122.09" width="18.02" height="2" transform="translate(110.02 436.73) rotate(-60.01)" style="fill:#f0f2f5;"/><rect x="369.43" y="99.41" width="18.02" height="2" transform="translate(183.5 439.97) rotate(-75)" style="fill:#f0f2f5;"/><path d="M319.68,73.99c-135.7,0-245.7,110-245.7,245.7s110,245.7,245.7,245.7,245.7-110,245.7-245.7-110-245.7-245.7-245.7ZM319.68,549.86c-127.12,0-230.18-103.05-230.18-230.18s103.05-230.18,230.18-230.18,230.18,103.05,230.18,230.18-103.05,230.18-230.18,230.18Z" style="fill:#b3db46;"/><rect x="317.68" y="0" width="4" height="24.41" style="fill:#f0f2f5;"/><rect x="163.94" y="41.19" width="4" height="24.41" transform="translate(-4.47 90.13) rotate(-30)" style="fill:#f0f2f5;"/><rect x="51.4" y="153.74" width="4" height="24.41" transform="translate(-117.01 129.22) rotate(-60)" style="fill:#f0f2f5;"/><rect x="0" y="317.68" width="24.41" height="4" style="fill:#f0f2f5;"/><rect x="41.19" y="471.42" width="24.41" height="4" transform="translate(-229.52 90.1) rotate(-29.99)" style="fill:#f0f2f5;"/><rect x="153.74" y="583.97" width="24.41" height="4" transform="translate(-424.51 436.75) rotate(-60.01)" style="fill:#f0f2f5;"/><rect x="317.68" y="614.96" width="4" height="24.41" style="fill:#f0f2f5;"/><rect x="471.42" y="573.76" width="4" height="24.41" transform="translate(-229.56 315.22) rotate(-30)" style="fill:#f0f2f5;"/><rect x="583.97" y="461.22" width="4" height="24.41" transform="translate(-117.01 744.18) rotate(-60)" style="fill:#f0f2f5;"/><rect x="614.96" y="317.68" width="24.41" height="4" style="fill:#f0f2f5;"/><rect x="573.76" y="163.95" width="24.41" height="4" transform="translate(-4.46 315.23) rotate(-30)" style="fill:#f0f2f5;"/><rect x="461.22" y="51.4" width="24.41" height="4" transform="translate(190.5 436.72) rotate(-60.01)" style="fill:#f0f2f5;"/><rect x="302.87" y=".43" width="1" height="15.98" transform="translate(-.02 15.9) rotate(-3)" style="fill:#f0f2f5;"/><rect x="270.42" y="3.84" width="1" height="15.98" transform="translate(1.48 42.52) rotate(-9)" style="fill:#f0f2f5;"/><rect x="238.51" y="10.62" width="1" height="15.98" transform="translate(3.33 62.5) rotate(-15)" style="fill:#f0f2f5;"/><rect x="207.48" y="20.7" width="1" height="15.98" transform="translate(3.53 76.44) rotate(-21)" style="fill:#f0f2f5;"/><rect x="177.68" y="33.97" width="1" height="15.98" transform="translate(.37 85.46) rotate(-27)" style="fill:#f0f2f5;"/><rect x="149.42" y="50.28" width="1" height="15.98" transform="translate(-7.55 91.06) rotate(-33)" style="fill:#f0f2f5;"/><rect x="123.03" y="69.46" width="1" height="15.98" transform="translate(-21.21 95) rotate(-39)" style="fill:#f0f2f5;"/><rect x="98.78" y="91.29" width="1" height="15.98" transform="translate(-41.13 99.29) rotate(-45)" style="fill:#f0f2f5;"/><rect x="76.95" y="115.54" width="1" height="15.98" transform="translate(-67.29 105.99) rotate(-51)" style="fill:#f0f2f5;"/><rect x="57.78" y="141.93" width="1" height="15.98" transform="translate(-99.2 117.14) rotate(-57)" style="fill:#f0f2f5;"/><rect x="41.46" y="170.19" width="1" height="15.98" transform="translate(-135.85 134.68) rotate(-63)" style="fill:#f0f2f5;"/><rect x="28.19" y="199.99" width="1" height="15.98" transform="translate(-175.76 160.24) rotate(-69)" style="fill:#f0f2f5;"/><rect x="18.11" y="231.02" width="1" height="15.98" transform="translate(-217.07 195.13) rotate(-75)" style="fill:#f0f2f5;"/><rect x="11.33" y="262.93" width="1" height="15.98" transform="translate(-257.61 240.23) rotate(-81)" style="fill:#f0f2f5;"/><rect x="7.92" y="295.38" width="1" height="15.98" transform="translate(-294.98 295.9) rotate(-87)" style="fill:#f0f2f5;"/><rect x=".43" y="335.5" width="15.98" height="1" transform="translate(-17.7 .91) rotate(-3.02)" style="fill:#f0f2f5;"/><rect x="3.84" y="367.94" width="15.98" height="1" transform="translate(-57.45 6.38) rotate(-8.99)" style="fill:#f0f2f5;"/><rect x="10.62" y="399.86" width="15.98" height="1" transform="translate(-103.35 18.57) rotate(-15.05)" style="fill:#f0f2f5;"/><rect x="20.7" y="430.89" width="15.98" height="1" transform="translate(-152.34 38.77) rotate(-20.95)" style="fill:#f0f2f5;"/><rect x="33.97" y="460.69" width="15.98" height="1" transform="translate(-204.57 69.17) rotate(-26.97)" style="fill:#f0f2f5;"/><rect x="50.29" y="488.94" width="15.98" height="1" transform="translate(-257.42 110.91) rotate(-33.04)" style="fill:#f0f2f5;"/><rect x="69.46" y="515.34" width="15.99" height="1" transform="translate(-307.21 163.53) rotate(-38.97)" style="fill:#f0f2f5;"/><rect x="91.29" y="539.58" width="15.98" height="1" transform="translate(-352.82 228.39) rotate(-45)" style="fill:#f0f2f5;"/><rect x="115.54" y="561.41" width="15.98" height="1" transform="translate(-391.01 304.52) rotate(-51.03)" style="fill:#f0f2f5;"/><rect x="141.93" y="580.59" width="15.98" height="1" transform="translate(-418.95 389.97) rotate(-56.96)" style="fill:#f0f2f5;"/><rect x="170.19" y="596.9" width="15.98" height="1" transform="translate(-435.07 485.31) rotate(-63.03)" style="fill:#f0f2f5;"/><rect x="199.99" y="610.17" width="15.98" height="1" transform="translate(-436.69 586.57) rotate(-69.05)" style="fill:#f0f2f5;"/><rect x="231.02" y="620.26" width="15.98" height="1" transform="translate(-422.5 690.51) rotate(-74.96)" style="fill:#f0f2f5;"/><rect x="262.93" y="627.04" width="15.98" height="1" transform="translate(-391.22 797.14) rotate(-81.02)" style="fill:#f0f2f5;"/><rect x="295.38" y="630.45" width="15.98" height="1" transform="translate(-342.71 900.61) rotate(-86.98)" style="fill:#f0f2f5;"/><rect x="335.5" y="622.96" width="1" height="15.98" transform="translate(-32.58 18.46) rotate(-3)" style="fill:#f0f2f5;"/><rect x="367.94" y="619.55" width="1" height="15.98" transform="translate(-93.61 65.35) rotate(-9)" style="fill:#f0f2f5;"/><rect x="399.86" y="612.76" width="1" height="15.98" transform="translate(-147.04 124.79) rotate(-15)" style="fill:#f0f2f5;"/><rect x="430.89" y="602.68" width="1" height="15.98" transform="translate(-190.2 195.16) rotate(-21)" style="fill:#f0f2f5;"/><rect x="460.69" y="589.41" width="1" height="15.98" transform="translate(-220.93 274.45) rotate(-27)" style="fill:#f0f2f5;"/><rect x="488.94" y="573.1" width="1" height="15.98" transform="translate(-237.53 360.34) rotate(-33)" style="fill:#f0f2f5;"/><rect x="515.34" y="553.92" width="1" height="15.98" transform="translate(-238.67 449.87) rotate(-39)" style="fill:#f0f2f5;"/><rect x="539.58" y="532.09" width="1" height="15.98" transform="translate(-223.71 540.12) rotate(-45)" style="fill:#f0f2f5;"/><rect x="561.41" y="507.85" width="1" height="15.99" transform="translate(-192.59 627.91) rotate(-51)" style="fill:#f0f2f5;"/><rect x="580.59" y="481.45" width="1" height="15.98" transform="translate(-145.88 710.2) rotate(-57)" style="fill:#f0f2f5;"/><rect x="596.9" y="453.2" width="1" height="15.98" transform="translate(-84.74 784.1) rotate(-63)" style="fill:#f0f2f5;"/><rect x="610.17" y="423.39" width="1" height="15.98" transform="translate(-10.88 846.93) rotate(-69)" style="fill:#f0f2f5;"/><rect x="620.26" y="392.36" width="1" height="15.98" transform="translate(73.37 896.33) rotate(-75)" style="fill:#f0f2f5;"/><rect x="627.04" y="360.45" width="1" height="15.98" transform="translate(165.46 930.62) rotate(-81)" style="fill:#f0f2f5;"/><rect x="630.45" y="328" width="1" height="15.98" transform="translate(262.4 948.5) rotate(-87)" style="fill:#f0f2f5;"/><rect x="622.96" y="302.87" width="15.98" height="1" transform="translate(-15.11 33.68) rotate(-3.02)" style="fill:#f0f2f5;"/><rect x="619.55" y="270.43" width="15.98" height="1" transform="translate(-34.64 101.42) rotate(-8.99)" style="fill:#f0f2f5;"/><rect x="612.76" y="238.51" width="15.98" height="1" transform="translate(-40.78 169.43) rotate(-15.05)" style="fill:#f0f2f5;"/><rect x="602.68" y="207.48" width="15.98" height="1" transform="translate(-34 232.09) rotate(-20.95)" style="fill:#f0f2f5;"/><rect x="589.41" y="177.68" width="15.98" height="1" transform="translate(-15.85 290.27) rotate(-26.97)" style="fill:#f0f2f5;"/><rect x="573.1" y="149.42" width="15.98" height="1" transform="translate(12.12 340.75) rotate(-33.01)" style="fill:#f0f2f5;"/><rect x="553.92" y="123.03" width="15.98" height="1" transform="translate(47.37 380.92) rotate(-38.97)" style="fill:#f0f2f5;"/><rect x="532.09" y="98.78" width="15.98" height="1" transform="translate(87.98 410.98) rotate(-45)" style="fill:#f0f2f5;"/><rect x="507.85" y="76.95" width="15.98" height="1" transform="translate(131.17 429.76) rotate(-51.03)" style="fill:#f0f2f5;"/><rect x="481.45" y="57.78" width="15.98" height="1" transform="translate(173.75 436.81) rotate(-56.96)" style="fill:#f0f2f5;"/><rect x="453.2" y="41.46" width="15.98" height="1" transform="translate(214.32 433.77) rotate(-62.98)" style="fill:#f0f2f5;"/><rect x="423.39" y="28.19" width="15.98" height="1" transform="translate(249.99 421.14) rotate(-69)" style="fill:#f0f2f5;"/><rect x="392.36" y="18.11" width="15.98" height="1" transform="translate(278.85 400.54) rotate(-75.01)" style="fill:#f0f2f5;"/><rect x="360.45" y="11.33" width="15.98" height="1" transform="translate(299.22 373.91) rotate(-81.02)" style="fill:#f0f2f5;"/><rect x="328" y="7.92" width="15.98" height="1" transform="translate(309.86 343.5) rotate(-86.98)" style="fill:#f0f2f5;"/><rect x="287.04" y="1.68" width="1" height="24.41" transform="translate(.12 30.13) rotate(-6)" style="fill:#f0f2f5;"/><rect x="255.26" y="6.72" width="1" height="24.41" transform="translate(1.66 53.59) rotate(-12)" style="fill:#f0f2f5;"/><rect x="224.17" y="15.05" width="1" height="24.41" transform="translate(2.57 70.76) rotate(-18)" style="fill:#f0f2f5;"/><rect x="194.12" y="26.58" width="1" height="24.41" transform="translate(1.05 82.51) rotate(-24)" style="fill:#f0f2f5;"/><rect x="138.45" y="58.72" width="1" height="24.41" transform="translate(-15.15 95.22) rotate(-36)" style="fill:#f0f2f5;"/><rect x="113.44" y="78.98" width="1" height="24.41" transform="translate(-31.75 99.66) rotate(-42)" style="fill:#f0f2f5;"/><rect x="90.68" y="101.74" width="1" height="24.41" transform="translate(-54.5 105.46) rotate(-48)" style="fill:#f0f2f5;"/><rect x="70.43" y="126.75" width="1" height="24.41" transform="translate(-83.18 114.66) rotate(-54)" style="fill:#f0f2f5;"/><rect x="38.29" y="182.42" width="1" height="24.41" transform="translate(-154.78 150.9) rotate(-66)" style="fill:#f0f2f5;"/><rect x="26.76" y="212.46" width="1" height="24.41" transform="translate(-194.84 181.16) rotate(-72)" style="fill:#f0f2f5;"/><rect x="18.43" y="243.55" width="1" height="24.41" transform="translate(-235.18 221.1) rotate(-78)" style="fill:#f0f2f5;"/><rect x="13.39" y="275.34" width="1" height="24.41" transform="translate(-273.53 271.3) rotate(-84)" style="fill:#f0f2f5;"/><rect x="1.68" y="351.33" width="24.41" height="1" transform="translate(-37.04 3.43) rotate(-6.06)" style="fill:#f0f2f5;"/><rect x="6.72" y="383.11" width="24.41" height="1" transform="translate(-79 12.23) rotate(-11.95)" style="fill:#f0f2f5;"/><rect x="15.05" y="414.2" width="24.41" height="1" transform="translate(-126.65 28.65) rotate(-17.97)" style="fill:#f0f2f5;"/><rect x="26.58" y="444.25" width="24.41" height="1" transform="translate(-177.29 54.09) rotate(-23.96)" style="fill:#f0f2f5;"/><rect x="58.72" y="499.92" width="24.41" height="1" transform="translate(-280.71 137.38) rotate(-36.02)" style="fill:#f0f2f5;"/><polygon points="82.45 533.97 81.78 533.22 99.92 516.89 100.59 517.63 82.45 533.97" style="fill:#f0f2f5;"/><polygon points="106.14 557.59 105.4 556.92 121.74 538.78 122.48 539.45 106.14 557.59" style="fill:#f0f2f5;"/><rect x="126.75" y="567.94" width="24.41" height="1" transform="translate(-402.52 346.55) rotate(-53.98)" style="fill:#f0f2f5;"/><rect x="182.42" y="600.08" width="24.41" height="1" transform="translate(-433.24 534.51) rotate(-66.04)" style="fill:#f0f2f5;"/><rect x="212.46" y="611.61" width="24.41" height="1" transform="translate(-426.9 636.92) rotate(-72.03)" style="fill:#f0f2f5;"/><rect x="243.55" y="619.94" width="24.41" height="1" transform="translate(-404.19 742.23) rotate(-78.05)" style="fill:#f0f2f5;"/><rect x="275.34" y="624.98" width="24.41" height="1" transform="translate(-364.78 845.43) rotate(-83.94)" style="fill:#f0f2f5;"/><rect x="351.33" y="613.27" width="1" height="24.41" transform="translate(-63.45 40.2) rotate(-6)" style="fill:#f0f2f5;"/><rect x="383.11" y="608.24" width="1" height="24.41" transform="translate(-120.61 93.31) rotate(-12)" style="fill:#f0f2f5;"/><rect x="414.2" y="599.91" width="1" height="24.41" transform="translate(-168.85 158.09) rotate(-18)" style="fill:#f0f2f5;"/><rect x="444.25" y="588.37" width="1" height="24.41" transform="translate(-205.83 232.83) rotate(-24)" style="fill:#f0f2f5;"/><rect x="499.92" y="556.23" width="1" height="24.41" transform="translate(-238.55 402.7) rotate(-36)" style="fill:#f0f2f5;"/><polygon points="533.22 557.59 516.89 539.45 517.63 538.78 533.97 556.92 533.22 557.59" style="fill:#f0f2f5;"/><polygon points="556.92 533.97 538.78 517.63 539.45 516.89 557.59 533.22 556.92 533.97" style="fill:#f0f2f5;"/><rect x="567.94" y="488.21" width="1" height="24.41" transform="translate(-170.53 666.15) rotate(-54)" style="fill:#f0f2f5;"/><rect x="600.08" y="432.54" width="1" height="24.41" transform="translate(-49.99 812.53) rotate(-66)" style="fill:#f0f2f5;"/><rect x="611.61" y="402.49" width="1" height="24.41" transform="translate(28.55 868.7) rotate(-72)" style="fill:#f0f2f5;"/><rect x="619.94" y="371.41" width="1" height="24.41" transform="translate(116.21 910.74) rotate(-78)" style="fill:#f0f2f5;"/><rect x="624.98" y="339.62" width="1" height="24.41" transform="translate(210.2 937.1) rotate(-84)" style="fill:#f0f2f5;"/><rect x="613.27" y="287.04" width="24.41" height="1" transform="translate(-26.84 67.59) rotate(-6.06)" style="fill:#f0f2f5;"/><rect x="608.24" y="255.26" width="24.41" height="1" transform="translate(-39.5 133.97) rotate(-11.95)" style="fill:#f0f2f5;"/><rect x="599.91" y="224.17" width="24.41" height="1" transform="translate(-39.46 199.86) rotate(-17.97)" style="fill:#f0f2f5;"/><rect x="588.37" y="194.12" width="24.41" height="1" transform="translate(-27.25 260.94) rotate(-23.99)" style="fill:#f0f2f5;"/><rect x="556.23" y="138.45" width="24.41" height="1" transform="translate(26.96 360.84) rotate(-36.02)" style="fill:#f0f2f5;"/><rect x="535.98" y="113.44" width="24.41" height="1" transform="translate(64.73 396.35) rotate(-42.03)" style="fill:#f0f2f5;"/><rect x="513.22" y="90.68" width="24.41" height="1" transform="translate(105.92 420.43) rotate(-47.97)" style="fill:#f0f2f5;"/><rect x="488.21" y="70.43" width="24.41" height="1" transform="translate(148.77 433.97) rotate(-53.98)" style="fill:#f0f2f5;"/><rect x="432.54" y="38.29" width="24.41" height="1" transform="translate(228.32 429.26) rotate(-65.99)" style="fill:#f0f2f5;"/><rect x="402.49" y="26.76" width="24.41" height="1" transform="translate(260.8 413.3) rotate(-72.03)" style="fill:#f0f2f5;"/><rect x="371.41" y="18.43" width="24.41" height="1" transform="translate(285.34 390.22) rotate(-78)" style="fill:#f0f2f5;"/><rect x="339.62" y="13.39" width="24.41" height="1" transform="translate(301.23 362.34) rotate(-84)" style="fill:#f0f2f5;"/><path d="M301.54,48.73v-1.08c0-7.46,3.98-10.18,8.3-10.18s8.21,2.79,8.21,10.09v1.05c0,7.4-3.86,10.09-8.27,10.09s-8.24-2.88-8.24-9.97ZM313.64,48.85v-1.29c0-4.76-1.29-6.92-3.83-6.92s-3.8,2.04-3.8,6.71v1.29c0,4.64,1.17,6.89,3.77,6.89s3.86-1.89,3.86-6.68Z" style="fill:#f0f2f5;"/><path d="M321.06,48.73v-1.08c0-7.46,3.98-10.18,8.3-10.18s8.21,2.79,8.21,10.09v1.05c0,7.4-3.86,10.09-8.27,10.09s-8.24-2.88-8.24-9.97ZM333.16,48.85v-1.29c0-4.76-1.29-6.92-3.83-6.92s-3.8,2.04-3.8,6.71v1.29c0,4.64,1.17,6.89,3.77,6.89s3.86-1.89,3.86-6.68Z" style="fill:#f0f2f5;"/><path d="M175.82,99.73l-.97-3.11c1.31-.06,2.78-.29,4.1-1.05,2.36-1.36,3.19-3.22,2.04-5.22-1.21-2.1-2.99-2.25-5.35-.89-1.06.61-2.42,2.16-3.01,3.05l-5.14-10.45,9.44-5.45,1.6,2.78-6.72,3.88,2.03,4.12c.39-.47,1.27-1.15,1.9-1.51,3.61-2.08,6.86-1.47,9.06,2.34,1.95,3.37.96,7.36-3.16,9.74-2.05,1.18-4.24,1.76-5.82,1.77Z" style="fill:#f0f2f5;"/><path d="M189.28,91.96l-.96-3.11c1.31-.06,2.77-.29,4.1-1.05,2.36-1.36,3.19-3.22,2.04-5.22-1.21-2.1-2.99-2.25-5.35-.89-1.06.61-2.42,2.16-3.01,3.05l-5.14-10.45,9.44-5.45,1.6,2.78-6.72,3.88,2.03,4.12c.39-.47,1.27-1.15,1.9-1.51,3.61-2.08,6.86-1.47,9.06,2.34,1.95,3.37.96,7.36-3.16,9.74-2.05,1.18-4.24,1.76-5.82,1.77Z" style="fill:#f0f2f5;"/><path d="M84.12,202.86l-2.39-2.21c1.1-.71,2.26-1.64,3.02-2.96,1.36-2.36,1.15-4.39-.85-5.54-2.1-1.21-3.72-.45-5.08,1.91-.61,1.06-1.02,3.08-1.08,4.15l-9.68-6.48,5.45-9.44,2.78,1.6-3.88,6.72,3.82,2.55c.1-.6.53-1.63.89-2.25,2.08-3.61,5.21-4.71,9.02-2.5,3.37,1.95,4.52,5.89,2.13,10.02-1.18,2.05-2.79,3.64-4.16,4.45Z" style="fill:#f0f2f5;"/><path d="M84.73,184.74l-.93-.54c-6.46-3.73-6.83-8.54-4.67-12.28,2.2-3.81,6.52-5.71,12.85-2.06l.91.52c6.41,3.7,6.81,8.39,4.61,12.21-2.31,4-6.61,5.7-12.76,2.15ZM90.88,174.32l-1.12-.64c-4.12-2.38-6.64-2.34-7.91-.14-1.29,2.23-.14,4.31,3.91,6.65l1.12.64c4.02,2.32,6.55,2.43,7.85.18,1.3-2.26.3-4.29-3.85-6.69Z" style="fill:#f0f2f5;"/><path d="M54.69,326.64v9.25h-2.28l-14.71-10.48v-2.79h13.93v-3.12h3.06v3.12h4.07v4.01h-4.07ZM51.64,326.61h-6.92l6.92,4.94v-4.94Z" style="fill:#f0f2f5;"/><path d="M57.27,317.51l-3.18-.72c.6-1.17,1.14-2.55,1.14-4.07,0-2.73-1.2-4.37-3.5-4.37-2.43,0-3.44,1.47-3.44,4.19,0,1.23.66,3.17,1.14,4.13l-11.62-.78v-10.9h3.21v7.76l4.58.3c-.21-.57-.36-1.68-.36-2.4,0-4.16,2.16-6.68,6.56-6.68,3.89,0,6.86,2.85,6.86,7.61,0,2.37-.6,4.55-1.38,5.93Z" style="fill:#f0f2f5;"/><path d="M94.67,459.93l4.63,8.01-1.97,1.14-17.98-1.73-1.39-2.41,12.06-6.96-1.56-2.7,2.65-1.53,1.56,2.7,3.53-2.04,2.01,3.48-3.53,2.04ZM92.01,461.43l-5.99,3.46,8.46.82-2.47-4.28Z" style="fill:#f0f2f5;"/><path d="M84.72,454.61l-.93.54c-6.46,3.73-10.81,1.64-12.97-2.09-2.2-3.81-1.69-8.5,4.64-12.15l.91-.52c6.41-3.7,10.67-1.7,12.88,2.11,2.31,4,1.63,8.57-4.52,12.12ZM78.77,444.07l-1.12.64c-4.12,2.38-5.35,4.58-4.08,6.78,1.29,2.23,3.67,2.28,7.71-.06l1.12-.64c4.02-2.32,5.38-4.46,4.08-6.71-1.3-2.26-3.57-2.4-7.72,0Z" style="fill:#f0f2f5;"/><path d="M201.48,554.52l-2.07,2.26c-.57-1.05-2.31-2.65-3.68-3.44-2.18-1.26-3.87-1.02-4.95.84-1.03,1.79-.22,3.13,1.86,4.39l1.92,1.17-1.48,2.57-1.77-.95c-1.98-1.07-3.65-.93-4.56.65-.94,1.63-.25,2.83,1.62,3.91,1.27.73,2.97,1.2,4.27,1.36l-1.15,2.9c-1.49-.06-3.93-.92-5.77-1.98-3.37-1.95-4.64-4.72-2.96-7.63,1.23-2.13,3.21-2.81,5.56-2.39-1.99-1.7-2.75-3.87-1.24-6.49,1.93-3.35,5.54-3.96,9.66-1.58,2.18,1.26,4.09,3.16,4.76,4.41Z" style="fill:#f0f2f5;"/><path d="M187.45,546.35l-2.21,2.39c-.71-1.1-1.64-2.26-2.96-3.02-2.36-1.36-4.39-1.15-5.54.85-1.21,2.1-.45,3.72,1.91,5.08,1.06.61,3.08,1.02,4.15,1.08l-6.48,9.68-9.44-5.45,1.6-2.78,6.72,3.88,2.55-3.82c-.6-.1-1.63-.53-2.25-.89-3.61-2.08-4.71-5.21-2.5-9.02,1.95-3.37,5.89-4.52,10.02-2.14,2.05,1.18,3.64,2.79,4.45,4.16Z" style="fill:#f0f2f5;"/><path d="M336.72,582.16l-.66,3c-1.02-.63-3.32-1.14-4.91-1.14-2.52,0-3.86,1.05-3.86,3.21s1.38,2.82,3.8,2.88l2.25.06v2.97l-2.01.06c-2.25.06-3.62,1.02-3.62,2.85s1.2,2.58,3.35,2.58c1.47,0,3.17-.45,4.37-.96l.45,3.09c-1.32.69-3.86,1.17-5.99,1.17-3.89,0-6.38-1.77-6.38-5.12,0-2.46,1.38-4.04,3.62-4.85-2.58-.48-4.31-1.98-4.31-5,0-3.86,2.82-6.2,7.58-6.2,2.52,0,5.12.69,6.32,1.44Z" style="fill:#f0f2f5;"/><path d="M320.04,590.64v1.08c0,7.46-3.98,10.18-8.3,10.18s-8.21-2.79-8.21-10.09v-1.05c0-7.4,3.86-10.09,8.27-10.09s8.24,2.88,8.24,9.97ZM307.94,590.52v1.29c0,4.76,1.29,6.92,3.83,6.92s3.8-2.04,3.8-6.71v-1.29c0-4.64-1.17-6.89-3.77-6.89s-3.86,1.89-3.86,6.68Z" style="fill:#f0f2f5;"/><path d="M464.01,540.96l-1.18,5.08c-.94,4-1.72,7.56-.51,9.67,1.21,2.1,2.81,2.11,5.02.84,1.11-.64,2.28-2.04,2.96-3.13l1.98,2.35c-.84,1.42-2.33,3.04-4.4,4.24-4.1,2.37-7.19,1.69-9.07-1.58-1.86-3.22-.6-8.16.12-11.11l.76-2.93-6.8,3.92-1.63-2.83,11.52-6.65,1.23,2.13Z" style="fill:#f0f2f5;"/><path d="M449.87,547.54l.96,3.11c-1.31.07-2.77.29-4.1,1.05-2.36,1.36-3.19,3.22-2.04,5.22,1.21,2.1,2.99,2.25,5.35.89,1.06-.61,2.42-2.16,3.01-3.05l5.14,10.45-9.44,5.45-1.6-2.78,6.72-3.88-2.03-4.12c-.39.47-1.27,1.15-1.9,1.51-3.61,2.08-6.86,1.47-9.06-2.34-1.95-3.37-.96-7.36,3.16-9.74,2.05-1.18,4.24-1.76,5.82-1.77Z" style="fill:#f0f2f5;"/><path d="M556.27,437.49l1.51,4.99c1.19,3.94,2.29,7.41,4.39,8.62s3.49.42,4.76-1.78c.64-1.11.95-2.91,1-4.19l2.89,1.04c-.02,1.65-.5,3.79-1.69,5.87-2.37,4.1-5.38,5.06-8.64,3.17-3.22-1.86-4.6-6.77-5.45-9.68l-.8-2.92-3.92,6.8-2.83-1.63,6.65-11.52,2.13,1.23Z" style="fill:#f0f2f5;"/><path d="M554.55,454.79l.93.54c6.46,3.73,6.83,8.54,4.67,12.28-2.2,3.81-6.52,5.71-12.85,2.06l-.91-.52c-6.41-3.7-6.81-8.39-4.61-12.21,2.31-4,6.61-5.7,12.76-2.15ZM548.4,465.21l1.12.64c4.12,2.38,6.64,2.34,7.91.14,1.29-2.23.14-4.31-3.91-6.65l-1.12-.64c-4.02-2.32-6.55-2.43-7.85-.17-1.3,2.26-.3,4.29,3.85,6.69Z" style="fill:#f0f2f5;"/><path d="M597.41,310.52l-.63-3.36h2.49l2.4,5.45v2.19h-20.76v-4.28h16.5Z" style="fill:#f0f2f5;"/><path d="M582.1,318.46l3.17.72c-.6,1.17-1.14,2.55-1.14,4.07,0,2.73,1.2,4.37,3.5,4.37,2.43,0,3.45-1.47,3.45-4.19,0-1.23-.66-3.17-1.14-4.13l11.62.78v10.9h-3.21v-7.76l-4.58-.3c.21.57.36,1.68.36,2.4,0,4.16-2.16,6.68-6.56,6.68-3.89,0-6.86-2.85-6.86-7.61,0-2.37.6-4.55,1.38-5.93Z" style="fill:#f0f2f5;"/><path d="M554.62,171.16l-2.22-2.59,2.15-1.24,4.8,3.52,1.09,1.89-17.98,10.38-2.14-3.71,14.29-8.25Z" style="fill:#f0f2f5;"/><path d="M552.95,181.81l.93-.54c6.46-3.73,10.81-1.64,12.97,2.09,2.2,3.81,1.69,8.5-4.64,12.15l-.91.52c-6.41,3.7-10.67,1.7-12.88-2.11-2.31-4-1.63-8.57,4.52-12.12ZM558.9,192.35l1.12-.64c4.12-2.38,5.35-4.57,4.08-6.78-1.29-2.23-3.67-2.28-7.71.06l-1.12.64c-4.02,2.32-5.38,4.46-4.08,6.71,1.3,2.26,3.57,2.4,7.72,0Z" style="fill:#f0f2f5;"/><path d="M441.17,76.96l.54-.93c3.73-6.46,8.54-6.83,12.28-4.67,3.81,2.2,5.71,6.52,2.06,12.85l-.53.91c-3.7,6.41-8.39,6.81-12.21,4.61-4-2.31-5.7-6.61-2.15-12.76ZM451.59,83.11l.64-1.12c2.38-4.12,2.34-6.64.14-7.91-2.23-1.29-4.31-.14-6.65,3.91l-.64,1.12c-2.32,4.02-2.43,6.55-.18,7.85,2.26,1.3,4.29.3,6.69-3.85Z" style="fill:#f0f2f5;"/><path d="M453.42,93.89l2.21-2.39c.71,1.1,1.64,2.26,2.96,3.02,2.36,1.36,4.38,1.15,5.54-.85,1.21-2.1.45-3.72-1.91-5.08-1.06-.61-3.08-1.02-4.15-1.08l6.48-9.67,9.44,5.45-1.6,2.78-6.72-3.88-2.55,3.82c.6.1,1.63.53,2.26.89,3.6,2.08,4.71,5.21,2.5,9.02-1.95,3.37-5.89,4.52-10.02,2.14-2.05-1.18-3.64-2.8-4.45-4.16Z" style="fill:#f0f2f5;"/></svg>