<?xml version="1.0" encoding="UTF-8"?><svg id="Layer_1" xmlns="http://www.w3.org/2000/svg" viewBox="0 0 26.43 551.59"><path d="M13.21,493.69c-6.24,0-11.33-5.08-11.33-11.33V187.61c0-6.24,5.08-11.33,11.33-11.33s11.33,5.08,11.33,11.33v294.76c0,6.24-5.08,11.33-11.33,11.33Z" style="fill:#b3db46;"/><path d="M13.21,551.59,16.04,551.47v-56.2c5.94-1.3,10.38-6.58,10.38-12.9V187.61c0-7.3-5.92-13.21-13.21-13.21s-13.21,5.92-13.21,13.21v294.76c0,6.32,4.45,11.6,10.38,12.9v56.2h5.66ZM3.78,482.37V187.61c0-5.2,4.23-9.44,9.44-9.44s9.44,4.23,9.44,9.44v294.76c0,4.21-2.79,7.74-6.61,8.96-.9.29-1.84.48-2.83.48s-1.93-.2-2.83-.48c-3.82-1.21-6.61-4.74-6.61-8.96Z" style="fill:#f0f2f5;"/></svg>