<?xml version="1.0" encoding="UTF-8"?><svg id="Layer_1" xmlns="http://www.w3.org/2000/svg" viewBox="0 0 83.76 558"><path d="M66.65,443.26c0-24.04-19.09-23.33-19.09-67.49,0-26.54-3.26-48.81,2.71-61.29,3.99-8.35,2.43-18.42-3.02-22.85l-1.26-16.93s0-14.9,8.28-28.15c12.39-19.85-7.62-38.56-12.39-99.03-4.76,60.46-24.77,79.18-12.39,99.03,8.27,13.25,8.28,28.15,8.28,28.15l-1.26,16.93c-5.45,4.44-7.01,14.5-3.02,22.85,5.97,12.48,2.71,34.75,2.71,61.29,0,44.16-19.09,43.45-19.09,67.49,0,16.54,16.66,20,20,26.54,3.34,6.55,2.61,21.54,2.61,21.54,0,0-5.71,1.19-5.71,7.86,0,6.67,5.71,7.5,5.71,7.5,0,0,0,2.86,0,10.12,0,7.26-7.38,2.98-7.38,13.57s9.54,10.86,9.54,10.86c0,0,9.54-.27,9.54-10.86,0-10.59-7.38-6.31-7.38-13.57v-10.12s5.71-.83,5.71-7.5-5.71-7.86-5.71-7.86c0,0-.73-15,2.61-21.54,3.34-6.55,20-10,20-26.54ZM41.88,451.13c-5.69,0-10.3-4.61-10.3-10.3,0-5.69,4.61-10.3,10.3-10.3,5.69,0,10.3,4.61,10.3,10.3s-4.61,10.3-10.3,10.3Z" style="fill:#222;"/></svg>