<?xml version="1.0" encoding="UTF-8"?><svg id="Layer_1" xmlns="http://www.w3.org/2000/svg" viewBox="0 0 83.76 558"><path d="M66.65,443.58c0-16.54-19.4-51.54-19.4-109.02s-2.86-144.61,4.64-166.39c7.5-21.78,5.71-31.06-4.64-35.71v-14.28s10.71-1.79,10.71-15.35c0-6.78-5.94-11.98-8.91-27.21-4.37-22.43-5.89-41-7.17-59.17-1.28,18.17-2.8,36.74-7.17,59.17-2.97,15.23-8.91,20.42-8.91,27.21,0,13.57,10.71,15.35,10.71,15.35v14.28c-10.35,4.64-12.14,13.93-4.64,35.71,7.5,21.78,4.64,108.91,4.64,166.39s-19.4,92.48-19.4,109.02,16.66,20,20,26.54c3.34,6.55,2.61,21.54,2.61,21.54,0,0-5.71,1.19-5.71,7.86s5.71,7.5,5.71,7.5v10.12c0,7.26-7.38,2.98-7.38,13.57s9.54,10.86,9.54,10.86c0,0,9.54-.27,9.54-10.86s-7.38-6.31-7.38-13.57v-10.12s5.71-.83,5.71-7.5-5.71-7.86-5.71-7.86c0,0-.73-15,2.61-21.54,3.34-6.55,20-10,20-26.54ZM41.88,451.44c-5.69,0-10.3-4.61-10.3-10.3s4.61-10.3,10.3-10.3,10.3,4.61,10.3,10.3-4.61,10.3-10.3,10.3Z" style="fill:#222;"/></svg>