<?xml version="1.0" encoding="UTF-8"?><svg id="Layer_1" xmlns="http://www.w3.org/2000/svg" viewBox="0 0 83.76 558"><path d="M43.25,427.5V17.5c0-.76-.61-1.37-1.37-1.37s-1.37.61-1.37,1.37v410c-6.75.69-12.02,6.39-12.02,13.32,0,6.93,5.27,12.64,12.02,13.32v85.73c0,.76.61,1.37,1.37,1.37s1.37-.61,1.37-1.37v-85.73c6.75-.69,12.02-6.39,12.02-13.32,0-6.93-5.27-12.64-12.02-13.32ZM41.88,451.13c-5.69,0-10.3-4.61-10.3-10.3,0-5.69,4.61-10.3,10.3-10.3,5.69,0,10.3,4.61,10.3,10.3,0,5.69-4.61,10.3-10.3,10.3Z" style="fill:#222;"/></svg>